<svg width="440" height="283" viewBox="0 0 440 283" fill="none" xmlns="http://www.w3.org/2000/svg">
<g filter="url(#filter0_di_76_479)">
<path d="M150 258.5C76 238.672 57.5 202.5 -48 202.5V-47.5H476V181.5C465.5 181.5 438 187.4 412 211C379.5 240.5 369 247 323 258.5C277 270 224 278.328 150 258.5Z" fill="#172031"/>
<path d="M150 258.5C76 238.672 57.5 202.5 -48 202.5V-47.5H476V181.5C465.5 181.5 438 187.4 412 211C379.5 240.5 369 247 323 258.5C277 270 224 278.328 150 258.5Z" stroke="#1D2739" stroke-width="6"/>
</g>
<defs>
<filter id="filter0_di_76_479" x="-56.5" y="-56.1" width="541" height="339.049" filterUnits="userSpaceOnUse" color-interpolation-filters="sRGB">
<feFlood flood-opacity="0" result="BackgroundImageFix"/>
<feColorMatrix in="SourceAlpha" type="matrix" values="0 0 0 0 0 0 0 0 0 0 0 0 0 0 0 0 0 0 127 0" result="hardAlpha"/>
<feOffset dy="4"/>
<feGaussianBlur stdDeviation="2.75"/>
<feComposite in2="hardAlpha" operator="out"/>
<feColorMatrix type="matrix" values="0 0 0 0 0 0 0 0 0 0 0 0 0 0 0 0 0 0 0.25 0"/>
<feBlend mode="normal" in2="BackgroundImageFix" result="effect1_dropShadow_76_479"/>
<feBlend mode="normal" in="SourceGraphic" in2="effect1_dropShadow_76_479" result="shape"/>
<feColorMatrix in="SourceAlpha" type="matrix" values="0 0 0 0 0 0 0 0 0 0 0 0 0 0 0 0 0 0 127 0" result="hardAlpha"/>
<feOffset dy="-8"/>
<feGaussianBlur stdDeviation="2.8"/>
<feComposite in2="hardAlpha" operator="arithmetic" k2="-1" k3="1"/>
<feColorMatrix type="matrix" values="0 0 0 0 0 0 0 0 0 0 0 0 0 0 0 0 0 0 0.25 0"/>
<feBlend mode="normal" in2="shape" result="effect2_innerShadow_76_479"/>
</filter>
</defs>
</svg>
